<svg id="vector" xmlns="http://www.w3.org/2000/svg" width="24" height="24" viewBox="0 0 24 24"><path fill="#000000FF" fill-rule="nonzero" d="M3.25,20.75l0,-17.75c0,-0.188 0.069,-0.359 0.206,-0.516c0.137,-0.156 0.318,-0.234 0.542,-0.234c0.224,0 0.406,0.078 0.544,0.234c0.139,0.157 0.208,0.329 0.208,0.516l-0,1.25l14.5,0l0,-1.25c0,-0.188 0.078,-0.359 0.234,-0.516c0.156,-0.156 0.327,-0.234 0.514,-0.234c0.187,0 0.359,0.078 0.516,0.234c0.157,0.157 0.236,0.329 0.236,0.516l-0,17.75l-1.5,-0l0,-11l-14.5,-0l-0,11l-1.5,-0Z" id="path_0"/></svg>