<svg id="vector" xmlns="http://www.w3.org/2000/svg" width="24" height="24" viewBox="0 0 960 960"><path fill="#000000" d="M580,470q-21,0 -35.5,-14.5T530,420q0,-21 14.5,-35.5T580,370q21,0 35.5,14.5T630,420q0,21 -14.5,35.5T580,470ZM380,470q-21,0 -35.5,-14.5T330,420q0,-21 14.5,-35.5T380,370q21,0 35.5,14.5T430,420q0,21 -14.5,35.5T380,470ZM480,680q-60,0 -108.5,-33T300,560h360q-23,54 -71.5,87T480,680ZM480,840q-75,0 -140.5,-28.5t-114,-77q-48.5,-48.5 -77,-114T120,480q0,-75 28.5,-140.5t77,-114q48.5,-48.5 114,-77T480,120q75,0 140.5,28.5t114,77q48.5,48.5 77,114T840,480q0,75 -28.5,140.5t-77,114q-48.5,48.5 -114,77T480,840ZM480,760q116,0 198,-82t82,-198q0,-116 -82,-198t-198,-82h-12q-6,0 -12,2 -6,6 -8,13t-2,15q0,21 14.5,35.5T496,280q9,0 16.5,-3t15.5,-3q12,0 20,9t8,21q0,23 -21.5,29.5T496,340q-45,0 -77.5,-32.5T386,230v-6q0,-3 1,-8 -83,30 -135,101t-52,163q0,116 82,198t198,82ZM480,480Z" id="path_0"/></svg>