<svg id="vector" xmlns="http://www.w3.org/2000/svg" width="24" height="24" viewBox="0 0 960 960"><path fill="#000000" d="M240,880q-33,0 -56.5,-23.5T160,800v-480q0,-33 23.5,-56.5T240,240h80q0,-66 47,-113t113,-47q66,0 113,47t47,113h80q33,0 56.5,23.5T800,320v480q0,33 -23.5,56.5T720,880L240,880ZM240,800h480v-480h-80v80q0,17 -11.5,28.5T600,440q-17,0 -28.5,-11.5T560,400v-80L400,320v80q0,17 -11.5,28.5T360,440q-17,0 -28.5,-11.5T320,400v-80h-80v480ZM400,240h160q0,-33 -23.5,-56.5T480,160q-33,0 -56.5,23.5T400,240ZM240,800v-480,480Z" id="path_0"/></svg>