<svg id="vector" xmlns="http://www.w3.org/2000/svg" width="24" height="24" viewBox="0 0 960 960"><path fill="#000000" d="M440,840v-319q-64,0 -123,-24.5T213,427q-45,-45 -69,-104t-24,-123v-80h80q63,0 122,24.5T426,214q31,31 51.5,68t31.5,79q5,-7 11,-13.5t13,-13.5q45,-45 104,-69.5T760,240h80v80q0,64 -24.5,123T746,547q-45,45 -103.5,69T520,640v200h-80ZM440,440q0,-48 -18.5,-91.5T369,271q-34,-34 -77.5,-52.5T200,200q0,48 18,92t52,78q34,34 78,52t92,18ZM520,560q48,0 91.5,-18t77.5,-52q34,-34 52.5,-78t18.5,-92q-48,0 -92,18.5T590,391q-34,34 -52,77.5T520,560ZM520,560ZM440,440Z" id="path_0"/></svg>